<svg xmlns="http://www.w3.org/2000/svg" width="432" height="100" viewBox="0 0 432 100">
  <metadata><?xpacket begin="﻿" id="W5M0MpCehiHzreSzNTczkc9d"?>
<x:xmpmeta xmlns:x="adobe:ns:meta/" x:xmptk="Adobe XMP Core 5.6-c142 79.160924, 2017/07/13-01:06:39        ">
   <rdf:RDF xmlns:rdf="http://www.w3.org/1999/02/22-rdf-syntax-ns#">
      <rdf:Description rdf:about=""/>
   </rdf:RDF>
</x:xmpmeta>
                                                                                                    
                                                                                                    
                                                                                                    
                                                                                                    
                                                                                                    
                                                                                                    
                                                                                                    
                                                                                                    
                                                                                                    
                                                                                                    
                                                                                                    
                                                                                                    
                                                                                                    
                                                                                                    
                                                                                                    
                                                                                                    
                                                                                                    
                                                                                                    
                                                                                                    
                                                                                                    
                           
<?xpacket end="w"?></metadata>
<defs>
    <style>
      .cls-1 {
        fill: #1ebba3;
      }

      .cls-2 {
        fill: #18bb9c;
      }

      .cls-2, .cls-3, .cls-4 {
        fill-rule: evenodd;
      }

      .cls-3 {
        fill: #475c74;
      }

      .cls-4, .cls-6 {
        fill: #fff;
      }

      .cls-5 {
        fill: #f5f5f5;
      }
    </style>
  </defs>
  <path class="cls-1" d="M50,0h50a0,0,0,0,1,0,0V50a50,50,0,0,1-50,50h0A50,50,0,0,1,0,50v0A50,50,0,0,1,50,0Z"/>
  <path id="code" class="cls-2" d="M154.227,66.9h-14.07a8.234,8.234,0,0,1-6.44-2.94,10.234,10.234,0,0,1-2.59-7,10.351,10.351,0,0,1,2.73-7.07,8.49,8.49,0,0,1,6.58-3.08h13.79v-8.4h-15.19q-8.681,0-13.65,5.46a18.48,18.48,0,0,0-4.62,12.88q0,8.051,4.865,12.985t13.335,4.935h15.26V66.9ZM195.071,43.14q-5.706-4.733-15.155-4.734a23.433,23.433,0,0,0-14.49,4.419,15.884,15.884,0,0,0-6.58,13.465q0,10.239,6.09,15.078,5.25,4.208,14.77,4.208t15.05-4.629q6.02-5.05,6.02-14.517Q200.776,47.875,195.071,43.14Zm-7.455,21.926q-2.52,3.3-7.7,3.3a9.562,9.562,0,0,1-7.42-3.16,12.151,12.151,0,0,1-2.87-8.5,10.864,10.864,0,0,1,2.835-7.689,9.365,9.365,0,0,1,7.175-3.055,9.758,9.758,0,0,1,7.525,2.985,10.488,10.488,0,0,1,2.765,7.408q0,5.688-2.31,8.707h0Zm55.02-39.33h-9.45v12.67h-12.53a14.122,14.122,0,0,0-11.2,5.25,18.384,18.384,0,0,0-4.48,12.32,21.126,21.126,0,0,0,3.99,12.81q4.339,5.88,10.92,5.88h22.75V25.737Zm-19.18,41.02a7,7,0,0,1-6.02-3.185,12.392,12.392,0,0,1-2.24-7.315,10.957,10.957,0,0,1,2.45-7.14,7.69,7.69,0,0,1,6.23-3.01h9.03v20.65h-9.45Zm57.26,1.33H268.425a18.052,18.052,0,0,1-4.038-.385,6.416,6.416,0,0,1-4.425-3.85,9.007,9.007,0,0,1-.386-2.835h21v-7.56h-21a7.076,7.076,0,0,1,5.355-7.175,16.317,16.317,0,0,1,3.815-.385h11.9v-7.49h-16.24q-6.161,0-11.165,5.565a19.075,19.075,0,0,0-5.005,13.2,18.434,18.434,0,0,0,4.585,12.355q4.583,5.355,10.815,5.355h17.08v-6.79Z"/>
  <path id="LAB" class="cls-3" d="M331.293,67.423h-15.68a20.705,20.705,0,0,1-5.88-.7,8.15,8.15,0,0,1-4.06-2.934,9.306,9.306,0,0,1-1.75-3.11,12.356,12.356,0,0,1-.49-3.67V26.4h-12.6V57.439a22.771,22.771,0,0,0,.385,4.44,17.715,17.715,0,0,0,1.365,4.019,14.806,14.806,0,0,0,8.54,7.689,36.465,36.465,0,0,0,12.46,1.748h17.71v-7.91ZM363.912,26.4h-11.97l-20.09,48.93h12.11l4.41-11.13H368.6l4.13,11.13h12.25Zm-12.18,29.26,6.44-17.22,6.65,17.22h-13.09Zm77.595-.35a13.037,13.037,0,0,0-6.055-4.27,11.949,11.949,0,0,0,7.56-11.55v-0.84a5.175,5.175,0,0,0-.07-0.84,11.8,11.8,0,0,0-4.515-8.26A14.549,14.549,0,0,0,416.9,26.4h-30.52v48.93h31.78a13,13,0,0,0,9.45-3.85,12.65,12.65,0,0,0,3.92-9.38A10.824,10.824,0,0,0,429.327,55.313Zm-12.5-9.555a4.481,4.481,0,0,1-3.57,1.645l-16.1-.07V35.643h15.47a5.087,5.087,0,0,1,4.025,1.82,6.414,6.414,0,0,1,1.575,4.34A5.9,5.9,0,0,1,416.832,45.758Zm0.6,19.67A4.75,4.75,0,0,1,413.752,67h-16.87V55.593H413.4a4.95,4.95,0,0,1,3.92,1.785,6.276,6.276,0,0,1,1.54,4.235A5.464,5.464,0,0,1,417.427,65.428Z"/>
  <path class="cls-4" d="M40.931,24.015H52.739a43.8,43.8,0,0,1,7.007.247,2.731,2.731,0,0,0,.519.616,3.193,3.193,0,0,1-.259,1.726l-0.26.123-0.13.493-0.26.123-0.13.493H59.1v0.246h-0.13l-0.259.739h-0.13l-0.13,1.233h-0.13v5.054c0,4.349-.259,5.779,1.038,8.883l0.13,0.739h0.13l0.13,0.493h0.13l0.389,1.109,0.26,0.123,0.26,0.739,0.259,0.123v0.247h0.13l0.13,0.37,0.26,0.123v0.247l0.26,0.123v0.246L62.081,48.8v0.246l0.26,0.123v0.247L62.6,49.538v0.246l0.26,0.123v0.247l0.26,0.123v0.247l0.259,0.123v0.247h0.13l0.13,0.37,0.26,0.123v0.246l0.259,0.123V52l0.259,0.123v0.246l0.26,0.123,0.13,0.37h0.13l0.13,0.493,0.26,0.123v0.246l0.26,0.123V54.1l0.26,0.123v0.247l0.26,0.123v0.246l0.26,0.123v0.247l0.259,0.123v0.246h0.13l0.13,0.37,0.26,0.123v0.246l0.26,0.123v0.246l0.26,0.123v0.247L67.92,57.18v0.246l0.26,0.123V57.8l0.26,0.123v0.246h0.13l0.13,0.37,0.259,0.123v0.246l0.389,0.246V59.4l0.26,0.123,0.13,0.37h0.13v0.246l0.26,0.123v0.247l0.26,0.123v0.246L70.645,61v0.247l0.26,0.123v0.246l0.26,0.123v0.247l0.259,0.123v0.246l0.26,0.123v0.246l0.26,0.123V63.1h0.13l0.13,0.37,0.26,0.123v0.247l0.389,0.246v0.246l0.26,0.123V64.7l0.26,0.123v0.247l0.26,0.123v0.246l0.26,0.123,0.13,0.493h0.13l0.26,0.74h0.13l0.26,1.479a7.387,7.387,0,0,1,.13,2.588H74.8v0.616h-0.13l-0.13.74h-0.13l-0.13.493h-0.13v0.246l-0.26.123v0.247l-0.519.37v0.247l-0.26.123V74.19h-0.26l-0.26.37H72.332l-0.13.246-0.779.247v0.123L70.9,75.3v0.123L70,75.546c-2.238.713-6.673,0.37-9.6,0.37H33.925a12.994,12.994,0,0,1-3.893-.37l-0.908-.123V75.3H28.864V75.176H28.6V75.052h-0.26V74.929H28.086V74.806H27.826l-0.13-.246H27.437l-0.26-.37H26.918l-0.13-.246h-0.13V73.7l-0.519-.37V73.08l-0.259-.123V72.711H25.75l-0.13-.493h-0.13v-0.37h-0.13v-0.37h-0.13V70.862a7.87,7.87,0,0,1-.13-2.712h0.13V67.657h0.13V67.164h0.13v-0.37h0.13l0.259-.74h0.13l0.13-.493,0.26-.123V65.192l0.259-.123V64.822l0.26-.123V64.452l0.259-.123V64.083h0.13l0.13-.37L27.7,63.59V63.343l0.259-.123V62.973l0.259-.123V62.6l0.259-.123V62.234l0.26-.123V61.864h0.13l0.13-.37,0.26-.123V61.124l0.389-.247V60.631l0.259-.123,0.13-.37h0.13V59.892l0.259-.123V59.522l0.26-.123V59.152l0.259-.123V58.783l0.259-.123V58.413l0.259-.123V58.043l0.259-.123V57.673l0.26-.123V57.3l0.259-.123V56.934l0.26-.123V56.564l0.26-.123V56.194l0.26-.123V55.824l0.259-.123V55.455l0.259-.123V55.085l0.259-.123V54.715l0.26-.123,0.13-.493,0.26-.123V53.729l0.26-.123V53.359l0.26-.123V52.99h0.13l0.13-.37,0.26-.123V52.25l0.26-.123,0.13-.37H36l0.13-.493,0.26-.123V50.894h0.13l0.13-.37,0.26-.123V50.155l0.259-.123V49.785l0.26-.123,0.13-.37h0.13l0.13-.493,0.26-.123V48.429l0.259-.123V48.059l0.26-.123V47.69l0.26-.123,0.13-.493,0.259-.123,0.26-.739,0.26-.123,0.389-1.109h0.13V44.731h0.13l0.13-.616h0.13v-0.37H40.8v-0.37h0.13v-0.37h0.13V42.513h0.13V42.02h0.13l0.13-1.479h0.13v-1.6a12.743,12.743,0,0,0,.13-2.958v-5.8H41.58V29.439H41.45V28.946h-0.13l-0.13-.616h-0.13V28.083h-0.13V27.836l-0.26-.123-0.13-.493a3.069,3.069,0,0,1-.908-1.849h0.13V24.878h0.13a0.8,0.8,0,0,1,.649-0.616V24.139h0.389V24.015Zm5.06,3.944v0.123l-0.389.123v1.233c0.4,0.412.259,2.135,0.26,2.958v4.693a19.344,19.344,0,0,1-.649,6.286l-0.13.986h-0.13l-0.26,1.109h-0.13v0.247h-0.13v0.37H44.3v0.246h-0.13V46.7h-0.13l-0.26.739h-0.13V47.69h-0.13v0.246H43.4l-0.26.739-0.259.123-0.13.493-0.259.123-0.13.493-0.26.123v0.246h-0.13l-0.13.37-0.26.123v0.247l-0.259.123-0.13.37h-0.13L40.931,52H40.8l-0.13.37-0.259.123v0.247h-0.13l-0.13.37-0.26.123v0.247l-0.26.123v0.246l-0.259.123-0.13.493-0.259.123v0.246h-0.13l-0.13.37-0.259.123v0.246l-0.26.123-0.13.37h-0.13l-0.13.493-0.26.123v0.247h-0.13l-0.13.37-0.259.123v0.247l-0.26.123v0.246l-0.26.123v0.246l-0.259.123-0.13.493-0.259.123V59.4l-0.389.247v0.246l-0.26.123-0.13.37h-0.13v0.246l-0.26.123V61l-0.26.123v0.247l-0.26.123v0.246l-0.259.123v0.247l-0.26.123V62.48h-0.13l-0.13.37-0.26.123V63.22h-0.13l-0.13.37-0.259.123v0.247l-0.389.246v0.246l-0.259.123-0.13.37h-0.13v0.246l-0.259.123v0.246l-0.259.123v0.247l-0.259.123V66.3l-0.259.123v0.247l-0.26.123v0.246l-0.259.123v0.246l-0.259.123V67.78l-0.259.123V68.15h-0.13a2.57,2.57,0,0,0,0,2.1c0.624,2.334,6.759,1.726,9.991,1.726H62.471c3.175,0,6.953.385,8.045-1.6a5.108,5.108,0,0,0,.13-1.849h-0.13l-0.13-.616h-0.13l-0.13-.37-0.26-.123V67.164h-0.13l-0.13-.37-0.26-.123V66.425l-0.26-.123V66.055l-0.259-.123V65.685l-0.26-.123V65.315h-0.13l-0.13-.37-0.26-.123V64.576l-0.26-.123V64.206L67.4,63.959V63.713l-0.26-.123-0.13-.37h-0.13V62.973l-0.26-.123V62.6l-0.259-.123V62.234l-0.26-.123V61.864l-0.26-.123V61.494l-0.26-.123V61.124L65.325,61V60.755l-0.26-.123V60.385h-0.13l-0.13-.37-0.26-.123V59.645L64.157,59.4V59.152L63.9,59.029l-0.13-.493-0.259-.123V58.166l-0.26-.123V57.8l-0.26-.123V57.427L62.73,57.3V57.057H62.6l-0.13-.37-0.26-.123V56.317l-0.259-.123V55.948l-0.26-.123V55.578l-0.26-.123V55.208l-0.259-.123V54.838l-0.26-.123V54.469l-0.259-.123V54.1l-0.26-.123V53.729h-0.13l-0.13-.37-0.259-.123V52.99h-0.13l-0.13-.37-0.26-.123V52.25l-0.26-.123V51.88l-0.259-.123V51.51l-0.26-.123V51.141l-0.26-.123V50.771l-0.259-.123V50.4l-0.26-.123-0.13-.37H57.54l-0.13-.493-0.26-.123-0.13-.493-0.259-.123-0.26-.739h-0.13V47.69h-0.13V47.443h-0.13l-0.26-.739h-0.13v-0.37h-0.13V46.087h-0.13l-1.038-3.574v-0.74a18.858,18.858,0,0,1-.26-4.807V29.809H54.3l0.13-1.6-0.389-.123c-0.345-.288-1.612-0.123-2.206-0.123H45.992ZM41.057,55.018c1.067-1.179,3.338-.912,3.772-0.912,4.105,0,4.34,0,8.486,0,0.531,0,2.456-.011,2.829,0,2.922,0.087,3.288,1.1,3.772,1.825,1.04,1.565,1.677,2.5,2.037,3.1v0.246L62.211,59.4v0.247l0.26,0.123v0.246l0.259,0.123v0.247l0.26,0.123v0.246l0.26,0.123v0.247l0.26,0.123,0.13,0.493h0.13l0.13,0.37,0.259,0.123V62.48L64.417,62.6V62.85h0.13l0.13,0.37,0.26,0.123V63.59l0.26,0.123v0.247l0.259,0.123v0.246l0.26,0.123,0.13,0.493h0.13l0.13,0.37,0.26,0.123v0.246h0.13l0.13,0.37,0.26,0.123v0.246l0.26,0.123v0.247l0.26,0.123v0.246l0.26,0.123,0.13,0.493h0.13a2.645,2.645,0,0,1-.259,1.6L66.752,70H41.58c-2.835,0-6.428.236-8.823-.247l-0.649-.863a2.6,2.6,0,0,1,.26-1.6l0.26-.123V66.918l0.259-.123,0.13-.493,0.259-.123V65.932l0.259-.123V65.562l0.259-.123V65.192h0.13l0.13-.37,0.26-.123V64.452l0.26-.123V64.083l0.259-.123,0.13-.493,0.259-.123V63.1l0.26-.123V62.727l0.26-.123V62.357h0.13l0.13-.37,0.26-.123V61.618l0.259-.123,0.13-.37h0.13l0.13-.493,0.259-.123V60.262l0.26-.123V59.892l0.259-.123V59.522h0.13l0.13-.37,0.26-.123c0.433-.615.758-0.975,0.965-1.275A24.129,24.129,0,0,1,41.057,55.018ZM57.41,58.906a1.37,1.37,0,0,0,.26-1.109l-0.26-.123V57.427a0.717,0.717,0,0,1-.519-0.246,1.148,1.148,0,0,0-1.168,1.233,1.29,1.29,0,0,0,.908.616v0.123Zm4.8,7.149a3.121,3.121,0,0,0,.26-1.109,6.076,6.076,0,0,1-.908-1.356l-0.26-.123V63.22l-0.26-.123V62.85l-0.259-.123V62.48l-0.26-.123V62.111l-0.26-.123V61.741l-0.259-.123-0.13-.493L59.616,61V60.755l-0.26-.123V60.385l-0.389-.247V60.015H58.059c-0.148.14,0,.049-0.26,0.123l-0.13.37H57.54v0.739a1.133,1.133,0,0,1,.26.493l0.26,0.123v0.247l0.259,0.123V62.48l0.26,0.123V62.85l0.26,0.123V63.22L59.1,63.343V63.59l0.26,0.123v0.247l0.26,0.123,0.13,0.493,0.26,0.123c0.4,0.571.538,1.376,1.427,1.479V66.3Z"/>
  <circle class="cls-5" cx="51.531" cy="45.859" r="2"/>
  <circle id="Ellipse_1_copy" data-name="Ellipse 1 copy" class="cls-5" cx="46.281" cy="50.141" r="1.5"/>
  <circle class="cls-6" cx="50.156" cy="37.828" r="2.5"/>
</svg>
